<mxfile host="app.diagrams.net" agent="Mozilla/5.0 (X11; Ubuntu; Linux x86_64; rv:135.0) Gecko/20100101 Firefox/135.0" version="26.0.14">
  <diagram id="C5RBs43oDa-KdzZeNtuy" name="Page-1">
    <mxGraphModel dx="1364" dy="795" grid="1" gridSize="10" guides="1" tooltips="1" connect="1" arrows="1" fold="1" page="1" pageScale="1" pageWidth="827" pageHeight="1169" math="0" shadow="0">
      <root>
        <mxCell id="WIyWlLk6GJQsqaUBKTNV-0" />
        <mxCell id="WIyWlLk6GJQsqaUBKTNV-1" parent="WIyWlLk6GJQsqaUBKTNV-0" />
        <mxCell id="WIyWlLk6GJQsqaUBKTNV-2" value="" style="rounded=0;html=1;jettySize=auto;orthogonalLoop=1;fontSize=11;endArrow=block;endFill=0;endSize=8;strokeWidth=1;shadow=0;labelBackgroundColor=none;edgeStyle=orthogonalEdgeStyle;" parent="WIyWlLk6GJQsqaUBKTNV-1" source="WIyWlLk6GJQsqaUBKTNV-3" edge="1">
          <mxGeometry relative="1" as="geometry">
            <mxPoint x="220" y="170" as="targetPoint" />
          </mxGeometry>
        </mxCell>
        <mxCell id="WIyWlLk6GJQsqaUBKTNV-3" value="START" style="rounded=1;whiteSpace=wrap;html=1;fontSize=12;glass=0;strokeWidth=1;shadow=0;" parent="WIyWlLk6GJQsqaUBKTNV-1" vertex="1">
          <mxGeometry x="160" y="80" width="120" height="40" as="geometry" />
        </mxCell>
        <mxCell id="jNi-wZ_yA9OPhAvH1Hqo-3" style="edgeStyle=orthogonalEdgeStyle;rounded=0;orthogonalLoop=1;jettySize=auto;html=1;" edge="1" parent="WIyWlLk6GJQsqaUBKTNV-1" source="jNi-wZ_yA9OPhAvH1Hqo-1" target="jNi-wZ_yA9OPhAvH1Hqo-2">
          <mxGeometry relative="1" as="geometry" />
        </mxCell>
        <mxCell id="jNi-wZ_yA9OPhAvH1Hqo-4" value="No" style="edgeLabel;html=1;align=center;verticalAlign=middle;resizable=0;points=[];" vertex="1" connectable="0" parent="jNi-wZ_yA9OPhAvH1Hqo-3">
          <mxGeometry x="-0.0667" y="-1" relative="1" as="geometry">
            <mxPoint as="offset" />
          </mxGeometry>
        </mxCell>
        <mxCell id="jNi-wZ_yA9OPhAvH1Hqo-6" style="edgeStyle=orthogonalEdgeStyle;rounded=0;orthogonalLoop=1;jettySize=auto;html=1;" edge="1" parent="WIyWlLk6GJQsqaUBKTNV-1" source="jNi-wZ_yA9OPhAvH1Hqo-1" target="jNi-wZ_yA9OPhAvH1Hqo-5">
          <mxGeometry relative="1" as="geometry" />
        </mxCell>
        <mxCell id="jNi-wZ_yA9OPhAvH1Hqo-1" value="Do you want to play?" style="rhombus;whiteSpace=wrap;html=1;fillColor=#fff2cc;strokeColor=#d6b656;" vertex="1" parent="WIyWlLk6GJQsqaUBKTNV-1">
          <mxGeometry x="180" y="170" width="80" height="80" as="geometry" />
        </mxCell>
        <mxCell id="jNi-wZ_yA9OPhAvH1Hqo-2" value="&lt;div&gt;Terminate app&lt;/div&gt;" style="rounded=1;whiteSpace=wrap;html=1;fillColor=#f8cecc;strokeColor=#b85450;" vertex="1" parent="WIyWlLk6GJQsqaUBKTNV-1">
          <mxGeometry x="320" y="190" width="120" height="40" as="geometry" />
        </mxCell>
        <mxCell id="jNi-wZ_yA9OPhAvH1Hqo-8" style="edgeStyle=orthogonalEdgeStyle;rounded=0;orthogonalLoop=1;jettySize=auto;html=1;exitX=0.5;exitY=1;exitDx=0;exitDy=0;" edge="1" parent="WIyWlLk6GJQsqaUBKTNV-1" source="jNi-wZ_yA9OPhAvH1Hqo-5" target="jNi-wZ_yA9OPhAvH1Hqo-7">
          <mxGeometry relative="1" as="geometry" />
        </mxCell>
        <mxCell id="jNi-wZ_yA9OPhAvH1Hqo-5" value="Show logo" style="rounded=1;whiteSpace=wrap;html=1;" vertex="1" parent="WIyWlLk6GJQsqaUBKTNV-1">
          <mxGeometry x="160" y="280" width="120" height="30" as="geometry" />
        </mxCell>
        <mxCell id="jNi-wZ_yA9OPhAvH1Hqo-20" style="edgeStyle=orthogonalEdgeStyle;rounded=0;orthogonalLoop=1;jettySize=auto;html=1;entryX=0.5;entryY=0;entryDx=0;entryDy=0;" edge="1" parent="WIyWlLk6GJQsqaUBKTNV-1" source="jNi-wZ_yA9OPhAvH1Hqo-7" target="jNi-wZ_yA9OPhAvH1Hqo-15">
          <mxGeometry relative="1" as="geometry" />
        </mxCell>
        <mxCell id="jNi-wZ_yA9OPhAvH1Hqo-7" value="Draw initial cards" style="rounded=1;whiteSpace=wrap;html=1;" vertex="1" parent="WIyWlLk6GJQsqaUBKTNV-1">
          <mxGeometry x="160" y="340" width="120" height="30" as="geometry" />
        </mxCell>
        <mxCell id="jNi-wZ_yA9OPhAvH1Hqo-47" style="edgeStyle=orthogonalEdgeStyle;rounded=0;orthogonalLoop=1;jettySize=auto;html=1;" edge="1" parent="WIyWlLk6GJQsqaUBKTNV-1" source="jNi-wZ_yA9OPhAvH1Hqo-10" target="jNi-wZ_yA9OPhAvH1Hqo-39">
          <mxGeometry relative="1" as="geometry" />
        </mxCell>
        <mxCell id="jNi-wZ_yA9OPhAvH1Hqo-49" value="Hit" style="edgeLabel;html=1;align=center;verticalAlign=middle;resizable=0;points=[];" vertex="1" connectable="0" parent="jNi-wZ_yA9OPhAvH1Hqo-47">
          <mxGeometry x="-0.4" y="-2" relative="1" as="geometry">
            <mxPoint as="offset" />
          </mxGeometry>
        </mxCell>
        <mxCell id="jNi-wZ_yA9OPhAvH1Hqo-51" style="edgeStyle=orthogonalEdgeStyle;rounded=0;orthogonalLoop=1;jettySize=auto;html=1;entryX=0.5;entryY=0;entryDx=0;entryDy=0;" edge="1" parent="WIyWlLk6GJQsqaUBKTNV-1" source="jNi-wZ_yA9OPhAvH1Hqo-10" target="jNi-wZ_yA9OPhAvH1Hqo-50">
          <mxGeometry relative="1" as="geometry" />
        </mxCell>
        <mxCell id="jNi-wZ_yA9OPhAvH1Hqo-52" value="Pass" style="edgeLabel;html=1;align=center;verticalAlign=middle;resizable=0;points=[];" vertex="1" connectable="0" parent="jNi-wZ_yA9OPhAvH1Hqo-51">
          <mxGeometry x="-0.3" y="3" relative="1" as="geometry">
            <mxPoint as="offset" />
          </mxGeometry>
        </mxCell>
        <mxCell id="jNi-wZ_yA9OPhAvH1Hqo-10" value="Hit or Pass?" style="rhombus;whiteSpace=wrap;html=1;fillColor=#fff2cc;strokeColor=#d6b656;" vertex="1" parent="WIyWlLk6GJQsqaUBKTNV-1">
          <mxGeometry x="180" y="640" width="80" height="80" as="geometry" />
        </mxCell>
        <mxCell id="jNi-wZ_yA9OPhAvH1Hqo-17" style="edgeStyle=orthogonalEdgeStyle;rounded=0;orthogonalLoop=1;jettySize=auto;html=1;exitX=1;exitY=0.5;exitDx=0;exitDy=0;entryX=0;entryY=0.5;entryDx=0;entryDy=0;" edge="1" parent="WIyWlLk6GJQsqaUBKTNV-1" source="jNi-wZ_yA9OPhAvH1Hqo-15" target="jNi-wZ_yA9OPhAvH1Hqo-16">
          <mxGeometry relative="1" as="geometry" />
        </mxCell>
        <mxCell id="jNi-wZ_yA9OPhAvH1Hqo-24" value="Yes" style="edgeLabel;html=1;align=center;verticalAlign=middle;resizable=0;points=[];" vertex="1" connectable="0" parent="jNi-wZ_yA9OPhAvH1Hqo-17">
          <mxGeometry x="-0.1" y="-1" relative="1" as="geometry">
            <mxPoint as="offset" />
          </mxGeometry>
        </mxCell>
        <mxCell id="jNi-wZ_yA9OPhAvH1Hqo-25" style="edgeStyle=orthogonalEdgeStyle;rounded=0;orthogonalLoop=1;jettySize=auto;html=1;" edge="1" parent="WIyWlLk6GJQsqaUBKTNV-1" source="jNi-wZ_yA9OPhAvH1Hqo-15">
          <mxGeometry relative="1" as="geometry">
            <mxPoint x="220" y="550" as="targetPoint" />
          </mxGeometry>
        </mxCell>
        <mxCell id="jNi-wZ_yA9OPhAvH1Hqo-26" value="No" style="edgeLabel;html=1;align=center;verticalAlign=middle;resizable=0;points=[];" vertex="1" connectable="0" parent="jNi-wZ_yA9OPhAvH1Hqo-25">
          <mxGeometry x="-0.36" y="-3" relative="1" as="geometry">
            <mxPoint as="offset" />
          </mxGeometry>
        </mxCell>
        <mxCell id="jNi-wZ_yA9OPhAvH1Hqo-15" value="Computer &amp;lt; 16?" style="rhombus;whiteSpace=wrap;html=1;fillColor=#fff2cc;strokeColor=#d6b656;" vertex="1" parent="WIyWlLk6GJQsqaUBKTNV-1">
          <mxGeometry x="180" y="425" width="80" height="80" as="geometry" />
        </mxCell>
        <mxCell id="jNi-wZ_yA9OPhAvH1Hqo-23" style="edgeStyle=orthogonalEdgeStyle;rounded=0;orthogonalLoop=1;jettySize=auto;html=1;entryX=0.5;entryY=0;entryDx=0;entryDy=0;exitX=0.5;exitY=0;exitDx=0;exitDy=0;" edge="1" parent="WIyWlLk6GJQsqaUBKTNV-1" source="jNi-wZ_yA9OPhAvH1Hqo-16" target="jNi-wZ_yA9OPhAvH1Hqo-15">
          <mxGeometry relative="1" as="geometry">
            <Array as="points">
              <mxPoint x="360" y="400" />
              <mxPoint x="220" y="400" />
            </Array>
          </mxGeometry>
        </mxCell>
        <mxCell id="jNi-wZ_yA9OPhAvH1Hqo-16" value="Computer draws" style="rounded=1;whiteSpace=wrap;html=1;" vertex="1" parent="WIyWlLk6GJQsqaUBKTNV-1">
          <mxGeometry x="300" y="450" width="120" height="30" as="geometry" />
        </mxCell>
        <mxCell id="jNi-wZ_yA9OPhAvH1Hqo-29" value="&lt;div&gt;If in any case there is an 11 and SUM &amp;gt; 21, 11 = 1&lt;/div&gt;" style="ellipse;whiteSpace=wrap;html=1;fillColor=#dae8fc;strokeColor=#6c8ebf;" vertex="1" parent="WIyWlLk6GJQsqaUBKTNV-1">
          <mxGeometry x="420" y="750" width="120" height="80" as="geometry" />
        </mxCell>
        <mxCell id="jNi-wZ_yA9OPhAvH1Hqo-38" style="edgeStyle=orthogonalEdgeStyle;rounded=0;orthogonalLoop=1;jettySize=auto;html=1;entryX=0.5;entryY=0;entryDx=0;entryDy=0;" edge="1" parent="WIyWlLk6GJQsqaUBKTNV-1" source="jNi-wZ_yA9OPhAvH1Hqo-37" target="jNi-wZ_yA9OPhAvH1Hqo-10">
          <mxGeometry relative="1" as="geometry" />
        </mxCell>
        <mxCell id="jNi-wZ_yA9OPhAvH1Hqo-37" value="&lt;div&gt;Show user hand and score&lt;/div&gt;" style="rounded=1;whiteSpace=wrap;html=1;" vertex="1" parent="WIyWlLk6GJQsqaUBKTNV-1">
          <mxGeometry x="160" y="550" width="120" height="60" as="geometry" />
        </mxCell>
        <mxCell id="jNi-wZ_yA9OPhAvH1Hqo-48" style="edgeStyle=orthogonalEdgeStyle;rounded=0;orthogonalLoop=1;jettySize=auto;html=1;" edge="1" parent="WIyWlLk6GJQsqaUBKTNV-1" source="jNi-wZ_yA9OPhAvH1Hqo-39" target="jNi-wZ_yA9OPhAvH1Hqo-40">
          <mxGeometry relative="1" as="geometry" />
        </mxCell>
        <mxCell id="jNi-wZ_yA9OPhAvH1Hqo-39" value="User draws" style="rounded=1;whiteSpace=wrap;html=1;" vertex="1" parent="WIyWlLk6GJQsqaUBKTNV-1">
          <mxGeometry x="300" y="665" width="120" height="30" as="geometry" />
        </mxCell>
        <mxCell id="jNi-wZ_yA9OPhAvH1Hqo-43" style="edgeStyle=orthogonalEdgeStyle;rounded=0;orthogonalLoop=1;jettySize=auto;html=1;entryX=1;entryY=0.5;entryDx=0;entryDy=0;exitX=0.5;exitY=0;exitDx=0;exitDy=0;" edge="1" parent="WIyWlLk6GJQsqaUBKTNV-1" source="jNi-wZ_yA9OPhAvH1Hqo-40" target="jNi-wZ_yA9OPhAvH1Hqo-37">
          <mxGeometry relative="1" as="geometry" />
        </mxCell>
        <mxCell id="jNi-wZ_yA9OPhAvH1Hqo-44" value="&lt;div&gt;No&lt;/div&gt;" style="edgeLabel;html=1;align=center;verticalAlign=middle;resizable=0;points=[];" vertex="1" connectable="0" parent="jNi-wZ_yA9OPhAvH1Hqo-43">
          <mxGeometry x="-0.8429" y="-2" relative="1" as="geometry">
            <mxPoint as="offset" />
          </mxGeometry>
        </mxCell>
        <mxCell id="jNi-wZ_yA9OPhAvH1Hqo-46" style="edgeStyle=orthogonalEdgeStyle;rounded=0;orthogonalLoop=1;jettySize=auto;html=1;entryX=0;entryY=0.5;entryDx=0;entryDy=0;" edge="1" parent="WIyWlLk6GJQsqaUBKTNV-1" source="jNi-wZ_yA9OPhAvH1Hqo-40" target="jNi-wZ_yA9OPhAvH1Hqo-45">
          <mxGeometry relative="1" as="geometry" />
        </mxCell>
        <mxCell id="jNi-wZ_yA9OPhAvH1Hqo-40" value="User &amp;gt; 21?" style="rhombus;whiteSpace=wrap;html=1;fillColor=#fff2cc;strokeColor=#d6b656;" vertex="1" parent="WIyWlLk6GJQsqaUBKTNV-1">
          <mxGeometry x="460" y="640" width="80" height="80" as="geometry" />
        </mxCell>
        <mxCell id="jNi-wZ_yA9OPhAvH1Hqo-45" value="&lt;div&gt;Player loses&lt;/div&gt;" style="rounded=1;whiteSpace=wrap;html=1;fillColor=#f8cecc;strokeColor=#b85450;" vertex="1" parent="WIyWlLk6GJQsqaUBKTNV-1">
          <mxGeometry x="580" y="650" width="120" height="60" as="geometry" />
        </mxCell>
        <mxCell id="jNi-wZ_yA9OPhAvH1Hqo-54" style="edgeStyle=orthogonalEdgeStyle;rounded=0;orthogonalLoop=1;jettySize=auto;html=1;entryX=0.5;entryY=0;entryDx=0;entryDy=0;" edge="1" parent="WIyWlLk6GJQsqaUBKTNV-1" source="jNi-wZ_yA9OPhAvH1Hqo-50" target="jNi-wZ_yA9OPhAvH1Hqo-53">
          <mxGeometry relative="1" as="geometry" />
        </mxCell>
        <mxCell id="jNi-wZ_yA9OPhAvH1Hqo-50" value="Show House hand and score" style="rounded=1;whiteSpace=wrap;html=1;" vertex="1" parent="WIyWlLk6GJQsqaUBKTNV-1">
          <mxGeometry x="160" y="760" width="120" height="60" as="geometry" />
        </mxCell>
        <mxCell id="jNi-wZ_yA9OPhAvH1Hqo-56" style="edgeStyle=orthogonalEdgeStyle;rounded=0;orthogonalLoop=1;jettySize=auto;html=1;" edge="1" parent="WIyWlLk6GJQsqaUBKTNV-1" source="jNi-wZ_yA9OPhAvH1Hqo-53" target="jNi-wZ_yA9OPhAvH1Hqo-55">
          <mxGeometry relative="1" as="geometry" />
        </mxCell>
        <mxCell id="jNi-wZ_yA9OPhAvH1Hqo-64" value="Yes" style="edgeLabel;html=1;align=center;verticalAlign=middle;resizable=0;points=[];" vertex="1" connectable="0" parent="jNi-wZ_yA9OPhAvH1Hqo-56">
          <mxGeometry x="-0.25" y="-1" relative="1" as="geometry">
            <mxPoint as="offset" />
          </mxGeometry>
        </mxCell>
        <mxCell id="jNi-wZ_yA9OPhAvH1Hqo-63" style="edgeStyle=orthogonalEdgeStyle;rounded=0;orthogonalLoop=1;jettySize=auto;html=1;exitX=0.5;exitY=1;exitDx=0;exitDy=0;entryX=0.5;entryY=0;entryDx=0;entryDy=0;" edge="1" parent="WIyWlLk6GJQsqaUBKTNV-1" source="jNi-wZ_yA9OPhAvH1Hqo-53" target="jNi-wZ_yA9OPhAvH1Hqo-58">
          <mxGeometry relative="1" as="geometry" />
        </mxCell>
        <mxCell id="jNi-wZ_yA9OPhAvH1Hqo-53" value="User &amp;gt; House?" style="rhombus;whiteSpace=wrap;html=1;fillColor=#fff2cc;strokeColor=#d6b656;" vertex="1" parent="WIyWlLk6GJQsqaUBKTNV-1">
          <mxGeometry x="180" y="850" width="80" height="80" as="geometry" />
        </mxCell>
        <mxCell id="jNi-wZ_yA9OPhAvH1Hqo-70" style="edgeStyle=orthogonalEdgeStyle;rounded=0;orthogonalLoop=1;jettySize=auto;html=1;entryX=0;entryY=0.5;entryDx=0;entryDy=0;" edge="1" parent="WIyWlLk6GJQsqaUBKTNV-1" source="jNi-wZ_yA9OPhAvH1Hqo-55" target="jNi-wZ_yA9OPhAvH1Hqo-69">
          <mxGeometry relative="1" as="geometry" />
        </mxCell>
        <mxCell id="jNi-wZ_yA9OPhAvH1Hqo-55" value="User wins" style="rounded=1;whiteSpace=wrap;html=1;fillColor=#d5e8d4;strokeColor=#82b366;" vertex="1" parent="WIyWlLk6GJQsqaUBKTNV-1">
          <mxGeometry x="300" y="875" width="120" height="30" as="geometry" />
        </mxCell>
        <mxCell id="jNi-wZ_yA9OPhAvH1Hqo-57" style="edgeStyle=orthogonalEdgeStyle;rounded=0;orthogonalLoop=1;jettySize=auto;html=1;" edge="1" parent="WIyWlLk6GJQsqaUBKTNV-1" source="jNi-wZ_yA9OPhAvH1Hqo-58" target="jNi-wZ_yA9OPhAvH1Hqo-59">
          <mxGeometry relative="1" as="geometry" />
        </mxCell>
        <mxCell id="jNi-wZ_yA9OPhAvH1Hqo-65" value="Yes" style="edgeLabel;html=1;align=center;verticalAlign=middle;resizable=0;points=[];" vertex="1" connectable="0" parent="jNi-wZ_yA9OPhAvH1Hqo-57">
          <mxGeometry x="-0.4" relative="1" as="geometry">
            <mxPoint as="offset" />
          </mxGeometry>
        </mxCell>
        <mxCell id="jNi-wZ_yA9OPhAvH1Hqo-66" style="edgeStyle=orthogonalEdgeStyle;rounded=0;orthogonalLoop=1;jettySize=auto;html=1;exitX=0.5;exitY=1;exitDx=0;exitDy=0;entryX=0.5;entryY=0;entryDx=0;entryDy=0;" edge="1" parent="WIyWlLk6GJQsqaUBKTNV-1" source="jNi-wZ_yA9OPhAvH1Hqo-58" target="jNi-wZ_yA9OPhAvH1Hqo-62">
          <mxGeometry relative="1" as="geometry" />
        </mxCell>
        <mxCell id="jNi-wZ_yA9OPhAvH1Hqo-67" value="No" style="edgeLabel;html=1;align=center;verticalAlign=middle;resizable=0;points=[];" vertex="1" connectable="0" parent="jNi-wZ_yA9OPhAvH1Hqo-66">
          <mxGeometry x="-0.3" y="2" relative="1" as="geometry">
            <mxPoint as="offset" />
          </mxGeometry>
        </mxCell>
        <mxCell id="jNi-wZ_yA9OPhAvH1Hqo-58" value="User &amp;gt; House?" style="rhombus;whiteSpace=wrap;html=1;fillColor=#fff2cc;strokeColor=#d6b656;" vertex="1" parent="WIyWlLk6GJQsqaUBKTNV-1">
          <mxGeometry x="180" y="960" width="80" height="80" as="geometry" />
        </mxCell>
        <mxCell id="jNi-wZ_yA9OPhAvH1Hqo-71" style="edgeStyle=orthogonalEdgeStyle;rounded=0;orthogonalLoop=1;jettySize=auto;html=1;entryX=0.5;entryY=1;entryDx=0;entryDy=0;" edge="1" parent="WIyWlLk6GJQsqaUBKTNV-1" source="jNi-wZ_yA9OPhAvH1Hqo-59" target="jNi-wZ_yA9OPhAvH1Hqo-69">
          <mxGeometry relative="1" as="geometry" />
        </mxCell>
        <mxCell id="jNi-wZ_yA9OPhAvH1Hqo-59" value="House wins" style="rounded=1;whiteSpace=wrap;html=1;fillColor=#d5e8d4;strokeColor=#82b366;" vertex="1" parent="WIyWlLk6GJQsqaUBKTNV-1">
          <mxGeometry x="300" y="985" width="120" height="30" as="geometry" />
        </mxCell>
        <mxCell id="jNi-wZ_yA9OPhAvH1Hqo-72" style="edgeStyle=orthogonalEdgeStyle;rounded=0;orthogonalLoop=1;jettySize=auto;html=1;" edge="1" parent="WIyWlLk6GJQsqaUBKTNV-1" source="jNi-wZ_yA9OPhAvH1Hqo-62">
          <mxGeometry relative="1" as="geometry">
            <mxPoint x="760" y="900" as="targetPoint" />
          </mxGeometry>
        </mxCell>
        <mxCell id="jNi-wZ_yA9OPhAvH1Hqo-62" value="Draw" style="rounded=1;whiteSpace=wrap;html=1;fillColor=#d5e8d4;strokeColor=#82b366;" vertex="1" parent="WIyWlLk6GJQsqaUBKTNV-1">
          <mxGeometry x="160" y="1080" width="120" height="30" as="geometry" />
        </mxCell>
        <mxCell id="jNi-wZ_yA9OPhAvH1Hqo-73" style="edgeStyle=orthogonalEdgeStyle;rounded=0;orthogonalLoop=1;jettySize=auto;html=1;entryX=0.5;entryY=0;entryDx=0;entryDy=0;" edge="1" parent="WIyWlLk6GJQsqaUBKTNV-1" source="jNi-wZ_yA9OPhAvH1Hqo-69" target="jNi-wZ_yA9OPhAvH1Hqo-1">
          <mxGeometry relative="1" as="geometry">
            <Array as="points">
              <mxPoint x="760" y="150" />
              <mxPoint x="220" y="150" />
            </Array>
          </mxGeometry>
        </mxCell>
        <mxCell id="jNi-wZ_yA9OPhAvH1Hqo-69" value="" style="triangle;whiteSpace=wrap;html=1;" vertex="1" parent="WIyWlLk6GJQsqaUBKTNV-1">
          <mxGeometry x="750" y="880" width="20" height="20" as="geometry" />
        </mxCell>
      </root>
    </mxGraphModel>
  </diagram>
</mxfile>
